<?xml version="1.0" encoding="iso-8859-1"?>
<!-- Generator: Adobe Illustrator 19.0.0, SVG Export Plug-In . SVG Version: 6.00 Build 0)  -->
<svg xmlns="http://www.w3.org/2000/svg" xmlns:xlink="http://www.w3.org/1999/xlink" version="1.1" id="Capa_1" x="0px" y="0px" viewBox="0 0 512 512" style="enable-background:new 0 0 512 512;" xml:space="preserve" width="512px" height="512px">
<g>
	<g>
		<g>
			<path d="M406.784,147.563c-15.054-25.495-42.521-41.069-72.128-40.896c-38.716-0.839-74.768,19.645-93.867,53.333     c-0.565-10.589-3.434-20.927-8.405-30.293c-8.276-13.549-23.364-21.413-39.211-20.437     c-43.393,4.458-82.119,29.181-104.427,66.667c-16.543,26.372-17.078,59.747-1.387,86.635     c18.522,33.991,54.219,55.06,92.928,54.848c-8.828,5.762-16.297,13.377-21.888,22.315c-14.763,25.6,2.133,58.219,42.005,81.259     c21.106,12.469,45.079,19.267,69.589,19.733c31.173,1.276,60.469-14.889,76.011-41.941     c20.135-33.097,20.463-74.579,0.853-107.989c9.46,4.811,19.857,7.498,30.464,7.872c29.504,0,49.344-30.933,49.344-76.971     C426.939,195.632,420.063,169.992,406.784,147.563z M256,234.667c11.782,0,21.333,9.551,21.333,21.333     s-9.551,21.333-21.333,21.333s-21.333-9.551-21.333-21.333S244.218,234.667,256,234.667z M124.309,241.237     c-9.821-19.729-4.987-43.607,11.733-57.963c15.018-17.827,36.185-29.362,59.307-32.32c2.987,9.102,4.26,18.679,3.755,28.245     c-0.095,13.389,1.584,26.732,4.992,39.68c-11.842,15.922-15.237,36.594-9.109,55.467     C166.67,280.391,137.79,266.862,124.309,241.237z M309.035,377.429v0.021c-12.175,18.356-35.262,26.099-56.043,18.795     c-22.947-4.049-43.519-16.613-57.6-35.179c6.388-7.131,14.041-13.018,22.571-17.365c11.63-6.667,22.326-14.845,31.808-24.32     c2.065,0.31,4.144,0.516,6.229,0.619c17.615-0.032,34.43-7.362,46.443-20.245C321.796,321.244,324.49,352.986,309.035,377.429z      M377.323,256c-9.367-1.973-18.291-5.654-26.325-10.859c-11.536-6.746-23.909-11.946-36.8-15.467     c-8.181-18.024-24.24-31.248-43.499-35.819c8.945-27.507,35.1-45.701,64-44.523c21.982,1.367,40.232,17.481,44.309,39.125     C386.984,210.379,386.383,234.505,377.323,256z" fill="#006DF0"/>
			<path d="M256,0C114.615,0,0,114.615,0,256s114.615,256,256,256s256-114.615,256-256C511.835,114.683,397.317,0.165,256,0z      M256,469.333c-117.821,0-213.333-95.513-213.333-213.333S138.179,42.667,256,42.667S469.333,138.179,469.333,256     C469.204,373.767,373.767,469.204,256,469.333z" fill="#006DF0"/>
		</g>
	</g>
</g>
<g>
</g>
<g>
</g>
<g>
</g>
<g>
</g>
<g>
</g>
<g>
</g>
<g>
</g>
<g>
</g>
<g>
</g>
<g>
</g>
<g>
</g>
<g>
</g>
<g>
</g>
<g>
</g>
<g>
</g>
</svg>
