<?xml version="1.0" encoding="iso-8859-1"?>
<!-- Generator: Adobe Illustrator 19.0.0, SVG Export Plug-In . SVG Version: 6.00 Build 0)  -->
<svg xmlns="http://www.w3.org/2000/svg" xmlns:xlink="http://www.w3.org/1999/xlink" version="1.1" id="Capa_1" x="0px" y="0px" viewBox="0 0 512 512" style="enable-background:new 0 0 512 512;" xml:space="preserve" width="512px" height="512px">
<g>
	<g>
		<path d="M256,36c-28.948,0-52.5,23.552-52.5,52.5S227.052,141,256,141s52.5-23.552,52.5-52.5S284.948,36,256,36z M256,126    c-20.678,0-37.5-16.822-37.5-37.5S235.322,51,256,51c20.678,0,37.5,16.822,37.5,37.5S276.678,126,256,126z" fill="#FFFFFF"/>
	</g>
</g>
<g>
	<g>
		<path d="M278,81h-14.5V66.5c0-4.143-3.357-7.5-7.5-7.5s-7.5,3.357-7.5,7.5v22c0,4.143,3.357,7.5,7.5,7.5h22    c4.143,0,7.5-3.357,7.5-7.5S282.143,81,278,81z" fill="#FFFFFF"/>
	</g>
</g>
<g>
	<g>
		<path d="M489.5,431h-3.23v-15.333c0-4.143-3.357-7.5-7.5-7.5s-7.5,3.357-7.5,7.5V431H351.833c-4.143,0-7.5,3.357-7.5,7.5    s3.357,7.5,7.5,7.5H489.5c4.136,0,7.5,3.364,7.5,7.5s-3.364,7.5-7.5,7.5h-467c-4.136,0-7.5-3.364-7.5-7.5s3.364-7.5,7.5-7.5    h297.333c4.143,0,7.5-3.357,7.5-7.5s-3.357-7.5-7.5-7.5H293.5v-13.833c0-4.143-3.357-7.5-7.5-7.5h-22.5v-10.139h31.732    c10.899,0,19.768-8.868,19.768-19.768v-5.466c0-7.958-4.738-14.816-11.533-17.947c2.556-4.174,4.033-9.077,4.033-14.32V336h163.77    v47.5c0,4.143,3.357,7.5,7.5,7.5s7.5-3.357,7.5-7.5V336h3.23c6.018,0,11.669-2.347,15.893-6.587    c4.261-4.244,6.607-9.896,6.607-15.913c0-12.406-10.094-22.5-22.5-22.5h-41v-27.5c0-17.921-14.579-32.5-32.5-32.5h-38    c-17.921,0-32.5,14.579-32.5,32.5V291h-38v-27.938c0-17.921-14.579-32.5-32.5-32.5h-38c-17.921,0-32.5,14.579-32.5,32.5V291    h-42.28v-27.5c0-17.921-14.579-32.5-32.5-32.5h-38c-17.921,0-32.5,14.579-32.5,32.5V291H22.5c-6.018,0-11.669,2.347-15.893,6.587    C2.347,301.831,0,307.482,0,313.5C0,325.906,10.094,336,22.5,336h3.23v15.833c0,4.143,3.357,7.5,7.5,7.5s7.5-3.357,7.5-7.5V336    H204.5v6.028c0,5.243,1.476,10.146,4.033,14.32c-6.795,3.131-11.533,9.988-11.533,17.947v5.466    c0,10.899,8.868,19.768,19.768,19.768H248.5v10.139H226c-4.143,0-7.5,3.357-7.5,7.5V431H40.73v-47.5c0-4.143-3.357-7.5-7.5-7.5    s-7.5,3.357-7.5,7.5V431H22.5C10.094,431,0,441.094,0,453.5S10.094,476,22.5,476h467c12.406,0,22.5-10.094,22.5-22.5    S501.906,431,489.5,431z M360.5,263.5c0-9.649,7.851-17.5,17.5-17.5h38c9.649,0,17.5,7.851,17.5,17.5V291h-73V263.5z M307.5,306    H353h88h48.5c4.136,0,7.5,3.364,7.5,7.5c0,2-0.779,3.877-2.214,5.307C493.377,320.221,491.5,321,489.5,321h-10.73H307.5V306z     M74.22,263.5c0-9.649,7.851-17.5,17.5-17.5h38c9.649,0,17.5,7.851,17.5,17.5V291h-73V263.5z M204.5,321H33.23H22.5    c-4.136,0-7.5-3.364-7.5-7.5c0-2,0.779-3.877,2.214-5.307C18.623,306.779,20.5,306,22.5,306h44.22h88h49.78V321z M219.5,263.062    c0-9.649,7.851-17.5,17.5-17.5h38c9.649,0,17.5,7.851,17.5,17.5v78.967c0,6.893-5.607,12.5-12.5,12.5h-48    c-6.893,0-12.5-5.607-12.5-12.5V263.062z M216.767,384.529c-2.628-0.001-4.767-2.139-4.767-4.768v-5.466    c0-2.628,2.139-4.767,4.768-4.767H232h48h15.232c2.629,0,4.768,2.139,4.768,4.767v5.466c0,2.629-2.139,4.768-4.768,4.768H216.767z     M233.5,424.667h45V431h-45V424.667z" fill="#FFFFFF"/>
	</g>
</g>
<g>
</g>
<g>
</g>
<g>
</g>
<g>
</g>
<g>
</g>
<g>
</g>
<g>
</g>
<g>
</g>
<g>
</g>
<g>
</g>
<g>
</g>
<g>
</g>
<g>
</g>
<g>
</g>
<g>
</g>
</svg>
